<svg version="1.2" xmlns="http://www.w3.org/2000/svg" viewBox="0 0 795 596" width="795" height="596"><defs><clipPath clipPathUnits="userSpaceOnUse" id="cp1"><path d="m-94 0h889v596h-889z"/></clipPath><clipPath clipPathUnits="userSpaceOnUse" id="cp2"><path d="m-94 0h889v596h-889z"/></clipPath></defs><style>.a{fill:#fff}.b{fill:none;stroke:#000;stroke-width:2.9}.c{fill:#000001}.d{fill:#0e1729}.e{fill:#fff;stroke:#000;stroke-width:2.9}.f{fill:#fff;stroke:#000;stroke-width:1.9}.g{fill:none;stroke:#241715}.h{fill:none;stroke:#fff}.i{fill:none;stroke:#027269}.j{fill:none;stroke:#000}</style><g clip-path="url(#cp1)"><g clip-path="url(#cp2)"><path class="a" d="m293.5 438.7c-76 42.7-33.2 148.2-8.2 152.6 19.4 3.4 82.8 1.5 113.6 0l238.2-176.2-139.4-19.2c-42.7 0-143.5 8.6-204.2 42.8z"/><path class="b" d="m398.9 591.3c-30.8 1.5-94.2 3.4-113.6 0-25-4.4-67.8-109.9 8.2-152.6 60.7-34.2 161.5-42.8 204.2-42.8l139.4 19.2zm0 0c-1.1 0 1.2-0.1 0 0z"/><path class="c" d="m314.1 453.2c52.5-10.1 95.1 20.8 109.9 37.4q3.7-5.1 8-10.2c-4.5-19.9-92.8-41.3-117.9-27.2z"/><path class="d" d="m393.6 593.5q2.8-0.1 5.3-0.2l194.6-144c-8.6-2.9-30.7-11.8-50.5-24.3-134.3 15.9-155.5 119-149.4 168.5z"/><path class="e" d="m615.7 593.3c96.7-31 21.4-171.1 21.4-176.3l-36.1-5c-184.1 11.4-211.4 125.6-202.1 181.3l31.1 255.9h80l6.9-255.9z"/><path class="c" d="m497.7 540.2c11.8 11.8 17.7 40.3 19.2 53.1h11.1c-3-14.5-13.1-45.5-30.3-53.1z"/><path fill-rule="evenodd" d="m0 593h796v3h-796z"/><path class="f" d="m512.7 146.1c-3.9-5-14-20.1-23.3-41.3 2.1-2.5 6.2-10 5.3-20.2-11-1.7-17.7-25.4-19.7-37 14.7-8.2 2.2-29.8 7-30.8 5.3-1 19.1 4.3 19.1 18 0 13.8 23.6 7.3 29.6 4.3 14.9-7.4 9.6 10.6 3.2 27.5-3.4 6 8.5 17.3 14.8 22.3 1.7 16.9-13.4 43.1-21.2 54 1.1 31.8 1.3 95.4-6.3 95.4-5.1-10.2-7.8-65.7-8.5-92.2z"/><path fill-rule="evenodd" class="g" d="m503.2 49.7c-1.8 1.7-4.3 6.8 0 12.7"/><path fill-rule="evenodd" class="g" d="m511.7 65.6c-0.8 3.9-3.9 9.7-10.6 2.1"/><path fill-rule="evenodd" class="g" d="m535 52.9c1.4-3.9 3.1-11.5-1.1-10.6"/><path  d="m493.6 96.3c0.9-3.2 1.5-7.2 1.1-11.7 5.9 3.2 15.9 4.3 37.1-10.6 0.8 11.1-25.1 19.5-38.2 22.3z"/><path  d="m547.7 16.8c7.4 18-9.6 42.4-13.8 49.8 6.4-16.9 10.6-34.9-3.2-27.5-6 3.2-29.6 9.5-29.6-4.3 0-13.7-13.8-19-19.1-18-4.8 1 7.7 22.6-7 30.8-1.5 0.8-3.4 1.6-5.7 2.1 5.3-7.4 3.2-6.4-1.1-24.4-4.2-18 14.8-22.2 32.9-24.4 18-2.1 39.2-2.1 46.6 15.9z"/><path  d="m647.3 131.3c-13.6-17.8-71.4-35.7-98.6-42.4 1.7 16.9-13.4 43.1-21.2 54 1.1 31.8 1.3 95.4-6.3 95.4-5.1-10.2-7.8-65.7-8.5-92.2-3.9-5-14-20.1-23.3-41.3-2.1 6.3-59.3 49.8-68.9 63.5-9.5 13.8-12.7 146.2-12.7 157.9 0 11.6-4.2 91.1 30.8 91.1 27.9 0 142.3 3.9 200.2 5.3 8.5-89.7 22-273.5 8.5-291.3z"/><path fill-rule="evenodd" class="h" d="m407.8 326.2c57.9-12 173.8-25.2 173.8 18 0 43.2-53.7 67.6-80.5 74.5"/><path fill-rule="evenodd" class="h" d="m581.6 98.3c-7.1 3.2-22.1 18.3-25.4 53.1-4.3 43.4-17.9 58.2-28.9 58.2"/><path fill-rule="evenodd" class="h" d="m613.4 110.1c-2.2-0.9-36.1 22.2-39.2 75.2-3.2 53-37.1 152.5-107 99.6-26.5-26.5-52-43.1-56.3-41.4"/><path fill-rule="evenodd" class="h" d="m516.5 211.8c-9 4.9-28.8 8.7-35.6-15.9-8.4-30.7-26.1-47.7-45.9-42.4"/><path fill-rule="evenodd" class="h" d="m489.4 418.3c9.5-9.1 26.1-30.5 15.9-42.3-10.2-11.9-65.8 4.2-92.3 13.8"/><path fill-rule="evenodd" class="h" d="m652.3 158.8c-22.8 14.1-65 59.1-50.6 126.1 12.7 38.1 36 34.2 46 27.5"/><path fill-rule="evenodd" class="h" d="m643.8 364.3c-13.6 0.2-39.8 12-34.7 57.5"/><path fill-rule="evenodd" class="i" d="m521.2 417.3v-178"/><path class="a" d="m521.8 415.6l-5.2-38.8c-11.8 2.2-36.5 4.3-55.5 6.1-20 1.9-25 12.3-11.6 15.7-7-0.9-14.8 8.8-3.7 13.1-8.2 2.9 8 6.1 16 6.2-4.6 0.6-12.5 1.9-11.4 6.7 1.1 4.9 48.1-4 71.4-9z"/><path  d="m521.8 415.6l-5.2-38.8c-2.7 0.5-6.2 1-10.1 1.5l-11.8 42.7c9.9-1.9 19.7-3.8 27.1-5.4z"/><path fill-rule="evenodd" class="j" d="m462.1 418.1l16.5-4.6"/><path fill-rule="evenodd" class="j" d="m449.6 407.8l28.9-3.5"/><path fill-rule="evenodd" class="j" d="m449.5 398.6l29.5-5.1"/><path  d="m678.7 381.6c2.6-40.6 5.4-245.1-40.4-256.1-52.9-12.7-52.2 182.3-29.3 226.7l-108 11 10.2 67.4c52.5-3.6 163.2 18.1 167.5-49z"/><path fill-rule="evenodd" class="h" d="m638.3 125.5c-52.9-12.7-52.2 182.3-29.3 226.7l-108 11"/><path fill-rule="evenodd" class="h" d="m660.3 154.9c-16.3 1.8-52.7 11.2-61.6 33.3"/><path fill-rule="evenodd" class="h" d="m670.5 190.5c-14.7 6.4-49.2 28.1-53.6 50.4-4.3 22.3 41.7 14.7 60.4 10.6"/><path fill-rule="evenodd" class="h" d="m678.4 290.5c-15.5 7.2-69.8 12-81.9-4.5"/><path fill-rule="evenodd" class="h" d="m679 360c-15.9-9.6-61.5-28.8-73.5-21.5"/><path fill-rule="evenodd" class="h" d="m562.6 356.6c-6.8 14.7 3.8 68.7 33.9 74.6"/><path class="e" d="m215.3 279.5h182c3.1 0 6 1.9 7.2 4.9l54 136.9c1.2 3 4 5 7.2 5h141.6c2.6 0 4.7 2.1 4.7 4.7 0 2.6-2.1 4.7-4.7 4.7h-336.2c-3.2 0-6-2-7.2-4.9l-55.8-140.7c-2-5.1 1.7-10.6 7.2-10.6z"/><path  d="m403.7 282.1l59.8 144.2h-4c-3.2 0-6-1.9-7.2-4.8l-56.7-136c-1.1-2.9 1-6 4-6 1.8 0 3.4 1 4.1 2.6z"/><path  d="m263.9 430.8l-55.8-140.7c-2-5.1 1.7-10.6 7.2-10.6h14.1c1.1 0 2.2 0.2 3.3 0.7 5 2.3 13.3 5.9 27 12.8 46.1 23.3 51.9 72.8 42.2 97.1-7.8 19.6 96.2 40 137 45.6h-167.8c-3.2 0-6-2-7.2-4.9z"/><path fill-rule="evenodd" d="m331.4 357c6-2.3 8.7-9.7 6.1-16.6-2.5-6.9-9.5-10.6-15.5-8.4-6 2.3-8.7 9.7-6.1 16.6 2.5 6.9 9.5 10.6 15.5 8.4z"/></g></g></svg>