<?xml version="1.0" encoding="iso-8859-1"?>
<svg version="1.1" id="Layer_1" xmlns="http://www.w3.org/2000/svg" xmlns:xlink="http://www.w3.org/1999/xlink" x="0px" y="0px"
     viewBox="0 0 500 500" style="enable-background:new 0 0 500 500;" xml:space="preserve">
<circle style="fill-rule:evenodd;clip-rule:evenodd;fill:#006BB6;" cx="250" cy="250" r="225"/>
    <g>
	<path style="fill-rule:evenodd;clip-rule:evenodd;fill:#FFFFFF;" d="M307.172,301.183v0.125
		c21.739-32.464,32.723-65.432,32.848-104.467c0-38.774-11.755-72.487-32.848-104.842h-0.128
		c-19.069,30.449-31.185,62.272-32.332,97.771C273.444,229.434,284.815,268.463,307.172,301.183L307.172,301.183z M307.172,293.597
		v-0.118c-6.06-11.878-9.216-24.777-9.216-37.896c0-12.883,3.156-26.405,9.216-37.765v-0.134
		c5.817,12.004,9.232,24.505,9.232,37.899C316.404,269.36,312.988,281.219,307.172,293.597L307.172,293.597z M282.791,188.891
		c2.168-28.796,10.857-54.702,24.252-80.708l0.128,0.112c15.412,27.805,23.501,55.07,25.014,86.656
		c0.753,13.904-0.63,27.425-3.534,41.055c0.629-14.025-0.131-27.15-2.658-40.799c-3.41-18.944-9.973-35.875-18.822-53.047
		l-0.128-0.14c-7.824,15.54-13.765,30.82-17.423,47.624c-3.406,15.667-4.171,30.195-4.171,46.362
		C283.174,220.221,281.66,204.786,282.791,188.891L282.791,188.891z"/>
        <path style="fill-rule:evenodd;clip-rule:evenodd;fill:#FFFFFF;" d="M273.827,339.706c6.319-6.192,12.251-9.348,21.228-8.467
		c14.397,1.389,23.612,9.985,24.369,24.25c1.394,27.286-34.732,43.838-57.327,42.571c-32.723-1.644-54.45-22.734-59.63-52.791
		c-3.152-18.327,3.649-38.412,16.555-52.295c12.738-13.648,30.05-19.083,47.98-19.455v-81.979
		c-61.259,0-106.474,43.455-109.634,102.943c-3.411,66.314,44.713,111.274,106.101,113.427
		c32.592,1.261,56.968-10.984,79.336-32.076v-70.621h-68.977V339.706L273.827,339.706z"/>
</g>
</svg>